
<svg xmlns="http://www.w3.org/2000/svg" xmlns:xlink="http://www.w3.org/1999/xlink" version="1.1" viewBox="0 0 369.8148148148148 61.25357099043165" class="css-1j8o68f">
	
	<g id="SvgjsG1664" featurekey="S6ay6y-0" transform="matrix(0.7038607755923069,0,0,0.7038607755923069,303.6225897597245,-3.1581363646418845)" fill="#6b705c">
		<path xmlns="http://www.w3.org/2000/svg" d="M28.036,91.512c-0.38,0-0.764-0.104-1.096-0.324c-0.708-0.467-1.048-1.332-0.844-2.155l3.552-14.353H15.872  c-0.944,0-1.764-0.656-1.956-1.584L2,16.368c-0.116-0.556,0.004-1.132,0.34-1.588c0.332-0.456,0.84-0.752,1.404-0.813L91.828,4.5  c0.607-0.072,1.22,0.156,1.648,0.592c0.428,0.436,0.631,1.056,0.547,1.66l-7.836,58.191c-0.136,0.992-0.979,1.736-1.983,1.736  H61.216L29.256,91.1C28.892,91.376,28.464,91.512,28.036,91.512L28.036,91.512z">
		</path>
	</g>
	<g id="SvgjsG1665" featurekey="j5pGhi-0" transform="matrix(2.576577620940771,0,0,2.576577620940771,-4.503857747749297,-0.14627533860613795)" fill="#6b705c">
		<path d="M1.748 4.941000000000001 l7.9785 0 l0 1.4258 l-6.5332 0 l0 4.5313 l3.877 0 l0 1.4258 l-3.877 0 l0 7.0996 l-1.4453 0 l0 -14.482 z M11.699259375 14.541 l0 -1.2891 q0.15625 -0.966796875 0.44921875 -1.572265625 q0.68359375 -1.6796875 1.8359375 -2.4609375 t1.9141 -0.78125 q0.56640625 0 1.2109375 0.37109375 l-0.71289 1.1523 q-0.908203125 -0.33203125 -1.801757813 0.537109375 t-1.2354 1.8945 q-0.25390625 0.908203125 -0.25390625 3.408203125 l0 3.623 l-1.4063 0 l0 -4.8828 z M18.759746875 4.3260000000000005 q0.46875 0 0.8056640625 0.33203125 t0.33691 0.80078 t-0.33691 0.80566 t-0.80566 0.33691 t-0.80078 -0.33691 t-0.33203 -0.80566 t0.33203 -0.80078 t0.80078 -0.33203 z M18.076146875 8.73 l1.377 0 l0 10.713 l-1.377 0 l0 -10.713 z M31.318484375 15.6348 l1.1523 0.61523 q-0.556640625 1.123046875 -1.30859375 1.806640625 t-1.6895 1.04 t-2.1191 0.35645 q-2.6171875 0 -4.091796875 -1.713867188 t-1.4746 -3.8721 q0 -2.041015625 1.25 -3.6328125 q1.58203125 -2.03125 4.248046875 -2.03125 q2.724609375 0 4.365234375 2.080078125 q1.162109375 1.46484375 1.171875 3.65234375 l-9.6191 0 q0.0390625 1.875 1.19140625 3.071289063 t2.8418 1.1963 q0.8203125 0 1.591796875 -0.2880859375 t1.3135 -0.75684 t1.1768 -1.5234 z M31.318484375 12.7539 q-0.2734375 -1.103515625 -0.80078125 -1.762695313 t-1.3965 -1.0645 t-1.8262 -0.40527 q-1.572265625 0 -2.705078125 1.015625 q-0.8203125 0.7421875 -1.240234375 2.216796875 l7.9688 0 z M35.380821875 15.3809 l-0.019531 -1.1426 q-0.029296875 -0.83984375 0.068359375 -1.42578125 q0.21484375 -1.845703125 0.9375 -2.705078125 q0.703125 -0.751953125 1.435546875 -1.162109375 q1.2109375 -0.517578125 2.763671875 -0.48828125 q1.2109375 0 2.241210938 0.6103515625 t1.4697 1.6406 t0.43945 3.2275 l0 5.5078 l-1.3672 0 l0 -5.1074 q0 -1.85546875 -0.15625 -2.48046875 q-0.244140625 -1.064453125 -0.966796875 -1.508789063 t-2.1387 -0.44434 q-1.25 0 -2.2265625 0.72265625 t-0.9082 1.9727 q-0.185546875 0.80078125 -0.185546875 2.919921875 l0 3.9258 l-1.3867 0 l0 -4.0625 z M57.559046875 17.3633 q0.87890625 -1.46484375 1.0546875 -2.880859375 q0 -10.16601563 0 -10.14648438 l-1.3672 0 l0 5.9766 q-0.869140625 -1.064453125 -1.943359375 -1.586914063 t-2.3535 -0.52246 q-2.265625 0 -3.876953125 1.650390625 t-1.6113 4.0039 q0 2.314453125 1.62109375 3.955078125 t3.9063 1.6406 q1.30859375 0 2.456054688 -0.5029296875 t2.1143 -1.5869 z M53.105446875 18.1348 q-1.162109375 0 -2.133789063 -0.5712890625 t-1.5479 -1.5869 t-0.57617 -2.168 q0 -1.1328125 0.5810546875 -2.172851563 t1.5625 -1.6113 t2.0947 -0.57129 q1.1328125 0 2.1484375 0.5712890625 t1.5625 1.5527 t0.54688 2.1924 q0 1.865234375 -1.23046875 3.115234375 t-3.0078 1.25 z M66.4648375 6.348000000000001 l0 -1.4063 l7.6367 0 l-6.0449 13.076 l5.7422 0 l0 1.4063 l-7.9785 0 l6.0938 -13.076 l-5.4492 0 z M81.53320625 8.203 q2.470703125 0 4.1015625 1.787109375 q1.474609375 1.640625 1.474609375 3.876953125 t-1.5625 3.9111 t-4.0137 1.6748 q-2.4609375 0 -4.018554688 -1.674804688 t-1.5576 -3.9111 q0 -2.2265625 1.474609375 -3.8671875 q1.630859375 -1.796875 4.1015625 -1.796875 z M81.53320625 9.551 q-1.708984375 0 -2.939453125 1.26953125 t-1.2305 3.0664 q0 1.162109375 0.5615234375 2.172851563 t1.5186 1.5527 t2.0898 0.54199 q1.15234375 0 2.104492188 -0.5419921875 t1.5088 -1.5527 t0.55664 -2.1729 q0 -1.796875 -1.23046875 -3.06640625 t-2.9395 -1.2695 z M89.638634375 15.3809 l-0.019531 -1.1426 q-0.029296875 -0.83984375 0.068359375 -1.42578125 q0.21484375 -1.845703125 0.9375 -2.705078125 q0.703125 -0.751953125 1.435546875 -1.162109375 q1.2109375 -0.517578125 2.763671875 -0.48828125 q1.2109375 0 2.241210938 0.6103515625 t1.4697 1.6406 t0.43945 3.2275 l0 5.5078 l-1.3672 0 l0 -5.1074 q0 -1.85546875 -0.15625 -2.48046875 q-0.244140625 -1.064453125 -0.966796875 -1.508789063 t-2.1387 -0.44434 q-1.25 0 -2.2265625 0.72265625 t-0.9082 1.9727 q-0.185546875 0.80078125 -0.185546875 2.919921875 l0 3.9258 l-1.3867 0 l0 -4.0625 z M110.927859375 15.6348 l1.1523 0.61523 q-0.556640625 1.123046875 -1.30859375 1.806640625 t-1.6895 1.04 t-2.1191 0.35645 q-2.6171875 0 -4.091796875 -1.713867188 t-1.4746 -3.8721 q0 -2.041015625 1.25 -3.6328125 q1.58203125 -2.03125 4.248046875 -2.03125 q2.724609375 0 4.365234375 2.080078125 q1.162109375 1.46484375 1.171875 3.65234375 l-9.6191 0 q0.0390625 1.875 1.19140625 3.071289063 t2.8418 1.1963 q0.8203125 0 1.591796875 -0.2880859375 t1.3135 -0.75684 t1.1768 -1.5234 z M110.927859375 12.7539 q-0.2734375 -1.103515625 -0.80078125 -1.762695313 t-1.3965 -1.0645 t-1.8262 -0.40527 q-1.572265625 0 -2.705078125 1.015625 q-0.8203125 0.7421875 -1.240234375 2.216796875 l7.9688 0 z"></path>
	</g>
</svg>	