<?xml version="1.0" encoding="UTF-8"?>
<svg xmlns="http://www.w3.org/2000/svg" xmlns:xlink="http://www.w3.org/1999/xlink" version="1.1" viewBox="12.16 12.61 76.54 75.88">		<g id="document" transform="scale(0.3333333333333333 0.3333333333333333) translate(150.0 150.0)">			<path d="M48.3442,-99.0458 C43.1751,-96.174 37.7188,-93.0151 32.2624,-89.2818 C39.1546,-87.5588 38.2931,-87.846 44.6109,-84.9742 C54.0877,-89.8562 66.7234,-94.7382 78.2104,-97.3227 C91.7076,-100.194 96.0152,-95.3125 87.9743,-76.0718 C65.5747,-22.3701 -8.2292,49.1364 -70.5461,84.1717 C-85.4792,92.4998 -96.3919,93.6485 -95.2432,80.4384 C-94.3816,71.2488 -90.074,61.4849 -86.3407,53.7312 C-88.9253,49.7107 -91.7971,43.9672 -92.9458,38.5109 C-94.956,41.957 -126.258,84.1717 -107.592,107.433 C-100.699,114.612 -90.074,116.622 -79.7357,114.899 C-69.3974,113.176 -57.9104,108.294 -45.2747,101.689 C-20.2905,88.1922 9.28846,65.5054 37.7188,36.7879 C66.4362,8.35758 88.8359,-20.9342 102.333,-45.9184 C109.225,-58.267 113.82,-69.754 115.543,-79.8051 C119.564,-96.174 102.333,-131.209 48.3442,-99.0458 Z M-11.6753,-93.0151 C-13.6855,-93.0151 -15.4086,-93.0151 -17.4188,-92.7279 C-18.8547,-92.7279 -20.2905,-92.7279 -21.7264,-92.4408 C-66.5257,-86.1229 -99.2636,-45.3441 -95.2432,0.316686 C-92.9458,26.1624 -79.1614,48.2749 -59.3463,62.3464 C-54.7515,59.7619 -50.4439,57.1773 -46.4234,54.8799 C-4.78311,26.1624 36.2829,-11.1703 60.4056,-56.8311 C44.3238,-79.5179 17.6165,-93.5895 -11.6753,-93.0151 Z M89.9846,-7.14986 C66.1491,27.5983 33.9855,57.1773 1.82191,83.3102 C-2.48571,86.1819 -7.08051,89.3409 -11.6753,92.4998 C-5.35746,93.3613 1.24756,93.6485 7.85258,93.0741 C16.1806,92.2126 24.2215,90.4896 31.6881,87.6178 C33.124,87.0435 34.2727,86.4691 35.7085,85.8948 C35.9957,85.8948 36.2829,85.6076 36.5701,85.6076 C46.9083,81.3 56.6723,75.2693 65.0004,66.6541 C75.3386,56.3158 82.2308,43.9672 86.2513,30.7572 C86.2513,30.47 86.5385,30.47 86.5385,30.1829 C86.5385,30.1829 86.5385,29.8957 86.8256,29.6085 C87.4,28.1726 87.6872,26.7368 87.9743,25.0137 C90.5589,15.2498 91.4204,4.91148 90.5589,-5.71398 C89.9846,-5.71398 89.9846,-6.57551 89.9846,-7.14986 Z " fill="#263437" fill-opacity="1.00"/>		</g>	</svg>