<?xml version="1.0" encoding="UTF-8"?>
<svg xmlns="http://www.w3.org/2000/svg" xmlns:xlink="http://www.w3.org/1999/xlink" version="1.1" viewBox="18.5 34.81 272.25 184.41">		<g id="document" transform="scale(1.0 1.0) translate(150.0 150.0)">			<g>				<path d="M-131.504,24.0081 L-131.504,69.2206 L-50.5118,69.2206 L-50.5118,24.0081 L-50.5118,11.4853 L-50.5118,-40.5579 C-50.3491,-63.0015 -68.7269,-81.2166 -91.0078,-81.2166 C-113.289,-81.2166 -131.504,-63.0015 -131.504,-40.7205 L-131.504,16.0391 C-131.504,16.0391 -131.504,24.0081 -131.504,24.0081 Z " fill="#b18e68" fill-opacity="1.00"/>				<path d="M-66.9379,-39.7447 L-115.078,-39.7447 C-116.379,-39.7447 -117.517,-38.6062 -117.517,-37.3052 C-117.517,-23.9691 -105.645,-13.0726 -91.0078,-13.0726 C-76.3707,-13.0726 -64.4983,-23.9691 -64.4983,-37.3052 C-64.4983,-38.6062 -65.6368,-39.7447 -66.9379,-39.7447 Z " fill="#493723" fill-opacity="1.00"/>				<path d="M-100.766,-37.3052 L-100.603,-15.6747 C-100.603,-11.121 -96.2121,-7.38036 -90.8452,-7.38036 C-85.4782,-7.38036 -81.0871,-11.121 -81.0871,-15.6747 L-81.0871,-37.3052 L-100.766,-37.3052 Z " fill="#ff5063" fill-opacity="1.00"/>				<path d="M-100.766,-18.1143 L-100.766,-21.5296 C-100.766,-25.9207 -96.3748,-29.6613 -91.0078,-29.6613 C-85.6409,-29.6613 -81.2497,-26.0834 -81.2497,-21.5296 L-81.2497,-18.1143 L-81.2497,-35.8415 L-100.766,-35.8415 L-100.766,-18.1143 Z " fill="#bf404f" fill-opacity="0.49"/>				<path d="M-70.1906,-39.9073 L-111.662,-39.9073 C-111.662,-39.7447 -111.825,-39.5821 -111.825,-39.2568 L-111.825,-36.8173 C-111.825,-35.6788 -111.012,-34.8656 -109.873,-34.8656 L-107.434,-34.8656 L-74.7443,-34.8656 L-72.3048,-34.8656 C-71.1664,-34.8656 -70.3532,-35.6788 -70.3532,-36.8173 L-70.3532,-39.2568 C-70.1906,-39.4194 -70.1906,-39.7447 -70.1906,-39.9073 Z " fill="#ffffff" fill-opacity="1.00"/>				<path d="M-111.825,-37.4678 C-105.645,-38.281 -98.489,-38.6062 -91.0078,-38.6062 C-83.5266,-38.6062 -76.3707,-38.1183 -70.1906,-37.4678 L-70.1906,-39.5821 C-70.1906,-39.7447 -70.1906,-39.9073 -70.3532,-40.2326 L-111.662,-40.2326 C-111.662,-40.07 -111.825,-39.9073 -111.825,-39.5821 C-111.825,-39.5821 -111.825,-37.4678 -111.825,-37.4678 Z " fill="#ecf1f2" fill-opacity="1.00"/>				<path d="M-105.97,-48.6896 C-105.97,-51.2918 -108.084,-53.406 -110.687,-53.406 C-113.289,-53.406 -115.403,-51.2918 -115.403,-48.6896 C-115.403,-46.0874 -113.289,-43.9732 -110.687,-43.9732 C-108.084,-43.9732 -105.97,-46.0874 -105.97,-48.6896 Z " fill="#473723" fill-opacity="1.00"/>				<path d="M-68.8895,-46.738 C-67.9137,-46.738 -66.9379,-47.5512 -66.9379,-48.6896 C-66.9379,-49.828 -67.9137,-50.6412 -68.8895,-50.6412 L-76.696,-50.6412 C-77.8344,-50.6412 -78.6476,-49.828 -78.6476,-48.6896 C-78.6476,-47.5512 -77.6718,-46.738 -76.696,-46.738 L-68.8895,-46.738 Z " fill="#473723" fill-opacity="1.00"/>				<path d="M-71.0037,-77.8012 C-72.6301,-79.9155 -74.907,-81.2166 -77.8344,-81.5418 L-82.2255,-82.0297 C-85.8035,-82.355 -88.243,-85.6077 -87.7551,-89.023 L-87.5925,-91.1373 L-87.9178,-91.1373 C-92.4715,-91.6252 -96.7,-89.8362 -99.4648,-86.4209 L-101.579,-93.4142 C-105.645,-92.1131 -108.898,-89.5109 -110.849,-85.933 C-112.801,-82.5176 -113.289,-79.1023 -111.988,-75.1991 L-68.8895,-70.32 C-68.5642,-73.0848 -69.54,-75.687 -71.0037,-77.8012 Z " fill="#ffc71f" fill-opacity="1.00"/>			</g>			<g>				<path d="M-17.2393,-65.6036 C-16.5888,-65.6036 -15.9382,-65.9289 -15.6129,-66.5794 C-15.125,-67.3926 -15.4503,-68.531 -16.2635,-69.019 L-42.773,-83.9814 C-43.5861,-84.4693 -44.7246,-84.144 -45.2125,-83.3308 C-45.7004,-82.5176 -45.3751,-81.3792 -44.5619,-80.8913 L-18.2151,-65.7663 C-17.8898,-65.6036 -17.5646,-65.6036 -17.2393,-65.6036 Z " fill="#473723" fill-opacity="1.00"/>				<path d="M17.2393,-65.7663 C17.5646,-65.7663 17.8898,-65.7663 18.0525,-66.0915 L44.2367,-81.2166 C45.0498,-81.7045 45.3751,-82.8429 44.8872,-83.6561 C44.3993,-84.4693 43.2609,-84.7945 42.4477,-84.3066 L16.2635,-69.1816 C15.4503,-68.6937 15.125,-67.5552 15.6129,-66.7421 C15.9382,-66.0915 16.5887,-65.7663 17.2393,-65.7663 Z " fill="#473723" fill-opacity="1.00"/>				<path d="M-44.074,20.2676 L-44.074,69.2206 L43.5861,69.2206 L43.5861,20.2676 L43.5861,6.60623 L43.5861,-49.6654 C43.7488,-73.7354 23.9073,-93.4142 -0.325271,-93.4142 C-24.5579,-93.4142 -44.074,-73.7354 -44.074,-49.6654 L-44.074,11.6479 L-44.074,20.2676 Z " fill="#b18e68" fill-opacity="1.00"/>				<path d="M14.4745,-63.3267 L24.3952,-63.3267 C24.3952,-63.8146 24.3952,-64.1399 24.3952,-64.6278 C24.3952,-67.3926 22.1183,-69.6695 19.3535,-69.6695 C16.5887,-69.6695 14.3119,-67.3926 14.3119,-64.6278 C14.3119,-64.1399 14.3119,-63.8146 14.4745,-63.3267 Z " fill="#473723" fill-opacity="1.00"/>				<path d="M-13.9866,-63.3267 C-13.824,-63.8146 -13.824,-64.1399 -13.9866,-64.6278 C-13.9866,-67.3926 -16.2635,-69.6695 -19.0283,-69.6695 C-21.7931,-69.6695 -24.0699,-67.3926 -24.0699,-64.6278 C-24.0699,-64.1399 -24.0699,-63.652 -23.9073,-63.3267 L-13.9866,-63.3267 Z " fill="#473723" fill-opacity="1.00"/>				<path d="M-23.4194,-58.773 C-13.6613,-58.773 -5.69222,-66.7421 -5.85486,-76.5002 C-5.85486,-82.0297 -10.246,-86.5835 -15.9382,-86.5835 L-28.7864,-86.5835 C-33.828,-86.5835 -37.7313,-82.5176 -37.7313,-77.6386 L-37.7313,-73.2475 C-37.8939,-65.1157 -31.3885,-58.773 -23.4194,-58.773 Z " fill="#12a4ff" fill-opacity="0.58"/>				<path d="M23.7447,-58.773 C31.5512,-58.773 38.0565,-65.1157 38.0565,-73.2475 L38.0565,-77.6386 C38.0565,-82.5176 34.1533,-86.5835 29.1116,-86.5835 L16.2635,-86.5835 C10.5713,-86.5835 6.18012,-82.0297 6.18012,-76.5002 C6.01748,-66.7421 13.9866,-58.773 23.7447,-58.773 Z " fill="#ff5063" fill-opacity="0.58"/>				<path d="M-15.2877,-81.2166 C-14.4745,-81.2166 -13.9866,-81.8671 -13.9866,-82.5176 C-13.9866,-83.1682 -14.4745,-83.8187 -15.2877,-83.8187 L-24.07,-83.8187 C-24.7205,-83.8187 -25.371,-83.1682 -25.371,-82.5176 C-25.371,-81.8671 -24.8831,-81.2166 -24.07,-81.2166 L-15.2877,-81.2166 Z " fill="#ecf1f2" fill-opacity="1.00"/>				<path d="M-28.1358,-81.2166 C-27.3226,-81.2166 -26.8347,-81.8671 -26.8347,-82.5176 C-26.8347,-83.1682 -27.3226,-83.8187 -28.1358,-83.8187 L-28.7864,-83.8187 C-29.4369,-83.8187 -30.0874,-83.1682 -30.0874,-82.5176 C-30.0874,-81.8671 -29.5995,-81.2166 -28.7864,-81.2166 L-28.1358,-81.2166 Z " fill="#ecf1f2" fill-opacity="1.00"/>				<path d="M24.3952,-81.2166 C25.2084,-81.2166 25.6963,-81.8671 25.6963,-82.5176 C25.6963,-83.1682 25.2084,-83.8187 24.3952,-83.8187 L15.6129,-83.8187 C14.9624,-83.8187 14.3119,-83.1682 14.3119,-82.5176 C14.3119,-81.8671 14.7998,-81.2166 15.6129,-81.2166 L24.3952,-81.2166 Z " fill="#ecf1f2" fill-opacity="1.00"/>				<path d="M29.1116,-81.2166 C29.9248,-81.2166 30.4127,-81.8671 30.4127,-82.5176 C30.4127,-83.1682 29.9248,-83.8187 29.1116,-83.8187 L28.4611,-83.8187 C27.8106,-83.8187 27.16,-83.1682 27.16,-82.5176 C27.16,-81.8671 27.6479,-81.2166 28.4611,-81.2166 L29.1116,-81.2166 Z " fill="#ecf1f2" fill-opacity="1.00"/>				<path d="M43.9114,-84.4693 L36.7555,-84.4693 C34.6412,-86.7461 31.7138,-88.2099 28.2985,-88.2099 L16.5887,-88.2099 C10.5713,-88.2099 5.69222,-83.8187 4.71641,-78.1265 C3.41533,-78.9397 1.95162,-79.4276 0.325268,-79.4276 C-1.30108,-79.4276 -2.76479,-78.9397 -4.06587,-78.1265 C-5.04168,-83.8187 -10.0834,-88.2099 -16.1008,-88.2099 L-27.9732,-88.2099 C-31.2259,-88.2099 -34.3159,-86.7461 -36.4302,-84.4693 L-43.4235,-84.4693 L-43.4235,-81.5418 L-38.2192,-81.5418 C-38.8697,-80.2408 -39.195,-78.6144 -39.195,-77.1507 L-39.195,-73.0848 C-39.195,-64.3025 -32.0391,-56.984 -23.0941,-56.984 C-13.0108,-56.984 -4.71641,-64.7905 -4.06587,-74.7112 L-3.90324,-74.5485 C-2.76479,-75.8496 -1.46372,-76.5002 0.325267,-76.5002 C1.95161,-76.5002 3.41533,-75.8496 4.55377,-74.5485 L4.71641,-74.7112 C5.52958,-64.7904 13.6613,-57.1466 23.7447,-57.1466 C32.527,-57.1466 39.8455,-64.3025 39.8455,-73.2475 L39.8455,-77.1507 C39.8455,-78.777 39.5203,-80.2408 38.8697,-81.5418 L44.2367,-81.5418 L44.2367,-84.4693 L43.9114,-84.4693 Z M-23.2568,-59.9114 C-30.5753,-59.9114 -36.4302,-65.7663 -36.4302,-73.0848 L-36.4302,-77.1507 C-36.4302,-81.7045 -32.6896,-85.4451 -28.1358,-85.4451 L-16.2635,-85.4451 C-11.0592,-85.4451 -6.9933,-81.2166 -6.9933,-76.1749 C-6.9933,-67.0673 -14.1492,-59.9114 -23.2568,-59.9114 Z M36.5928,-73.0848 C36.5928,-65.7663 30.738,-59.9114 23.4194,-59.9114 C14.4745,-59.9114 7.31856,-67.23 7.31856,-76.0122 C7.15593,-81.2166 11.3844,-85.2824 16.4261,-85.2824 L28.2985,-85.2824 C32.8522,-85.2824 36.5928,-81.5418 36.5928,-76.9881 L36.5928,-73.0848 L36.5928,-73.0848 Z " fill="#433423" fill-opacity="1.00"/>				<path d="M-39.8455,-83.0055 L-43.9114,-83.0055 " fill="none" stroke-width="0.22" stroke="#433423" stroke-linecap="square" stroke-linejoin="miter"/>				<path d="M43.4235,-81.2166 C44.2367,-81.2166 44.8872,-81.8671 44.8872,-82.6803 C44.8872,-83.4935 44.2367,-84.144 43.4235,-84.144 L39.3576,-84.144 C38.5444,-84.144 37.8939,-83.4935 37.8939,-82.6803 C37.8939,-81.8671 38.5444,-81.2166 39.3576,-81.2166 L43.4235,-81.2166 Z " fill="#433423" fill-opacity="1.00"/>				<path d="M17.7272,-48.6896 L-15.7756,-48.6896 C-17.2393,-48.6896 -18.3777,-47.5512 -18.3777,-46.0874 C-18.3777,-36.3294 -9.75809,-28.3603 0.975807,-28.3603 C11.7097,-28.3603 20.3293,-36.3294 20.3293,-46.0874 C20.3294,-47.5512 19.1909,-48.6896 17.7272,-48.6896 Z " fill="#493723" fill-opacity="1.00"/>				<path d="M-6.9933,-48.6896 L-7.15593,-44.949 C-7.15593,-42.8348 -5.36695,-41.2084 -3.41533,-41.2084 C-1.30108,-41.2084 0.325271,-42.9974 0.325271,-44.949 L0.325271,-48.6896 L-6.9933,-48.6896 Z " fill="#f7f9fe" fill-opacity="1.00"/>				<path d="M-6.9933,-48.6896 L-6.9933,-46.4127 L0.325271,-46.4127 L0.325271,-48.6896 L-6.9933,-48.6896 Z " fill="#dce7eb" fill-opacity="1.00"/>				<path d="M2.27689,-48.6896 L2.11425,-44.949 C2.11425,-42.8348 3.90324,-41.2084 5.85486,-41.2084 C7.96911,-41.2084 9.59546,-42.9974 9.59546,-44.949 L9.59546,-48.6896 L2.27689,-48.6896 Z " fill="#f7f9fe" fill-opacity="1.00"/>				<path d="M2.27689,-48.6896 L2.27689,-46.4127 L9.59546,-46.4127 L9.59546,-48.6896 L2.27689,-48.6896 Z " fill="#dce7eb" fill-opacity="1.00"/>			</g>			<g>				<path d="M55.1012,-39.0599 L64.5951,-65.1681 L127.401,-65.1681 L135.799,-39.0599 C142.92,-61.334 125.94,-86.1641 100.562,-110.081 L98.554,-106.247 L92.7116,-115.193 C72.9935,-93.4671 47.9808,-67.7241 55.1012,-39.0599 Z " fill="#a5ae31" fill-opacity="1.00"/>				<path d="M50.1854,16.6278 L50.1854,67.2009 L140.742,67.2009 L140.742,16.6278 L140.742,2.56953 L140.742,-55.6717 C140.925,-80.6844 120.477,-100.95 95.4639,-100.95 C70.4512,-100.95 50.1854,-80.6844 50.1854,-55.6717 L50.1854,7.86418 L50.1854,16.6278 Z " fill="#b18e68" fill-opacity="1.00"/>				<path d="M124.311,-60.6012 L66.6171,-60.6012 C64.7914,-60.6012 63.5133,-59.1407 63.5133,-57.4975 C63.5133,-41.2484 77.9367,-28.103 95.4639,-28.103 C113.174,-28.103 127.414,-41.2484 127.414,-57.4975 C127.414,-59.1407 126.136,-60.6012 124.311,-60.6012 Z " fill="#f57180" fill-opacity="1.00"/>				<path d="M122.302,-60.6012 L68.808,-60.6012 C68.808,-60.4187 68.6254,-60.0535 68.6254,-59.871 L68.6254,-56.5846 C68.6254,-55.124 69.7209,-54.0286 71.1815,-54.0286 L74.4678,-54.0286 L116.643,-54.0286 L119.929,-54.0286 C121.389,-54.0286 122.485,-55.124 122.485,-56.5846 L122.485,-59.871 C122.485,-60.0535 122.485,-60.4187 122.302,-60.6012 Z " fill="#ffffff" fill-opacity="1.00"/>				<path d="M68.808,-57.4975 C76.8413,-58.4104 85.97,-58.9581 95.6465,-58.9581 C105.323,-58.9581 114.452,-58.4104 122.485,-57.4975 L122.485,-60.2361 C122.485,-60.4187 122.485,-60.7838 122.302,-60.9664 L68.808,-60.9664 C68.808,-60.7838 68.6254,-60.4187 68.6254,-60.2361 L68.808,-57.4975 Z " fill="#ecf1f2" fill-opacity="1.00"/>				<path d="M106.601,-39.0575 C106.601,-45.265 101.671,-50.1945 95.6465,-50.0119 C89.6215,-50.0119 84.692,-45.0824 84.692,-39.0575 C84.692,-33.0325 89.6215,-28.103 95.6465,-28.103 C101.671,-28.103 106.601,-33.0325 106.601,-39.0575 Z " fill="#2f2417" fill-opacity="1.00"/>				<path d="M81.4056,-31.0242 C85.6049,-29.0159 90.3518,-27.9204 95.4639,-27.9204 C100.576,-27.9204 105.323,-29.0159 109.522,-31.0242 L109.522,-33.7628 C109.522,-35.2234 108.427,-36.3188 106.966,-36.3188 L105.323,-36.3188 L87.248,-36.3188 L83.9617,-36.3188 C82.5011,-36.3188 81.4056,-35.2234 81.4056,-33.7628 L81.4056,-31.0242 L81.4056,-31.0242 Z " fill="#ffffff" fill-opacity="1.00"/>				<path d="M109.522,-31.0242 C106.236,-29.9287 101.124,-29.381 95.4639,-29.381 C89.8041,-29.381 84.692,-30.1113 81.4057,-31.0242 C85.6049,-29.0159 90.3518,-27.9204 95.4639,-27.9204 C100.576,-27.9204 105.323,-29.0159 109.522,-31.0242 Z " fill="#ecf1f2" fill-opacity="1.00"/>				<path d="M93.4556,-42.709 C93.4556,-41.6135 94.3684,-40.8832 95.2813,-40.8832 C96.3768,-40.8832 97.1071,-41.7961 97.1071,-42.709 C97.1071,-42.8915 97.1071,-43.2567 97.1071,-43.2567 L95.2813,-50.0119 L93.4556,-43.2567 C93.6381,-43.0741 93.4556,-42.8915 93.4556,-42.709 Z " fill="#f25d5a" fill-opacity="1.00"/>				<path d="M113.721,-49.0991 C116.277,-49.0991 118.103,-50.9248 118.103,-53.4808 C118.103,-55.8543 116.095,-57.8626 113.721,-57.8626 C111.348,-57.8626 109.34,-55.8543 109.34,-53.4808 C109.34,-51.1074 111.348,-49.0991 113.721,-49.0991 Z " fill="#f57180" fill-opacity="1.00"/>				<path d="M80.8579,-71.1906 C80.8579,-74.1118 78.4845,-76.4852 75.5633,-76.4852 C72.6421,-76.4852 70.2686,-74.1118 70.2686,-71.1906 C70.2686,-68.2694 72.6421,-65.8959 75.5633,-65.8959 C78.4845,-65.8959 80.8579,-68.2694 80.8579,-71.1906 Z " fill="#473723" fill-opacity="1.00"/>				<path d="M110.252,-67.9042 L120.477,-67.9042 C120.659,-68.2694 120.659,-68.8171 120.659,-69.1822 C120.659,-72.1034 118.286,-74.4769 115.364,-74.4769 C112.443,-74.4769 110.07,-72.1034 110.07,-69.1822 C110.07,-68.8171 110.07,-68.2694 110.252,-67.9042 Z " fill="#473723" fill-opacity="1.00"/>			</g>		</g>	</svg>